<?xml version="1.0" encoding="UTF-8" standalone="no"?>
<!DOCTYPE svg PUBLIC "-//W3C//DTD SVG 1.1//EN" "http://www.w3.org/Graphics/SVG/1.1/DTD/svg11.dtd">
<svg xmlns="http://www.w3.org/2000/svg" version="1.1" viewBox="0 0 472 564" width="472.0pt" height="564.0pt">
<path d="M 0.00 0.00 L 472.00 0.00 L 472.00 564.00 L 0.00 564.00 L 0.00 0.00 Z" fill="#ffffff" />
<path d="M 367.25 8.21 C 361.31 18.28 353.75 28.34 344.06 35.09 C 337.39 39.88 328.93 42.73 321.14 45.16 C 311.64 48.20 302.01 50.08 291.99 49.45 C 283.64 49.12 275.22 47.41 267.00 45.91 C 244.83 41.29 222.70 37.58 200.00 37.15 C 186.75 36.90 173.07 37.25 160.06 39.97 C 162.03 42.80 163.52 45.54 166.46 47.52 C 173.68 52.50 183.12 55.16 191.51 57.42 C 200.09 59.84 207.69 65.00 212.22 72.79 C 216.27 79.40 215.88 88.41 213.73 95.59 C 210.91 104.90 205.11 111.61 198.89 118.80 C 206.26 114.72 214.12 112.62 222.08 110.08 C 228.02 108.29 234.00 106.61 240.01 105.10 C 253.58 101.49 267.81 99.02 280.79 93.74 C 286.30 91.50 291.84 89.40 297.47 87.49 C 316.52 80.75 334.39 71.13 348.96 56.97 C 354.31 50.91 360.02 46.16 364.27 39.30 C 366.41 36.30 367.96 32.39 371.37 30.77 C 371.86 32.55 372.52 34.13 372.21 36.02 C 371.51 41.53 368.43 46.74 365.16 51.13 C 361.28 56.31 357.80 61.64 353.50 66.50 C 342.73 78.99 328.79 87.49 313.60 93.60 C 281.04 106.68 245.04 111.35 212.24 122.41 C 208.72 123.65 205.20 125.10 201.96 126.95 C 191.68 132.96 182.49 140.72 175.11 150.08 C 165.81 161.71 156.71 174.37 152.98 189.02 C 149.03 206.66 147.22 224.14 151.02 242.01 C 152.38 248.01 154.76 253.52 156.72 259.32 C 158.28 262.89 158.92 266.66 160.84 270.02 C 157.61 267.33 154.22 265.74 151.86 262.12 C 145.47 252.64 141.41 241.41 139.43 230.19 C 133.13 195.18 145.73 157.19 173.51 134.49 C 178.93 130.46 182.93 125.48 187.63 120.62 C 193.72 113.70 200.73 107.04 204.60 98.54 C 207.05 92.91 208.13 86.25 206.77 80.23 C 205.23 74.79 200.77 70.11 195.92 67.40 C 193.82 66.29 191.59 65.42 189.30 64.83 C 182.90 63.25 176.67 62.07 170.58 59.41 C 165.68 57.25 160.90 54.58 156.64 51.33 C 153.46 48.88 152.68 45.54 151.54 41.91 C 129.24 47.40 108.51 60.18 92.25 76.25 C 76.22 92.14 64.14 111.88 58.80 133.91 C 53.82 153.62 53.81 174.58 58.58 194.33 C 63.16 213.98 73.21 232.23 87.76 246.24 C 98.69 256.79 111.95 264.88 126.41 269.56 C 131.61 271.43 137.03 272.52 142.24 274.34 C 143.66 275.21 145.03 276.15 146.42 277.06 C 145.87 277.59 145.31 278.12 144.76 278.64 C 141.60 278.61 138.46 278.47 135.33 278.14 C 130.60 277.11 125.89 276.27 121.29 274.75 C 100.97 268.36 83.48 255.18 70.78 238.19 C 51.02 211.54 44.32 175.89 49.58 143.48 C 53.73 116.70 66.83 92.02 85.74 72.73 C 103.34 54.61 125.56 40.76 150.03 34.17 C 167.81 29.32 185.66 28.27 204.00 28.72 C 223.30 28.85 242.92 31.88 261.82 35.69 C 272.10 37.75 282.54 40.06 293.01 40.76 C 301.47 41.33 309.65 39.93 317.79 37.73 C 325.17 35.67 332.64 33.38 339.09 29.13 C 349.09 22.55 356.18 13.75 364.56 5.61 C 367.03 3.82 368.54 5.75 367.25 8.21 Z" fill="#000000" />
<path d="M 151.54 41.91 C 152.68 45.54 153.46 48.88 156.64 51.33 C 160.90 54.58 165.68 57.25 170.58 59.41 C 176.67 62.07 182.90 63.25 189.30 64.83 C 182.68 66.20 176.41 67.07 170.45 70.52 C 157.76 77.82 145.84 86.08 135.41 96.41 C 128.64 103.18 121.93 109.45 116.02 116.99 C 107.00 128.40 99.80 141.14 95.27 154.99 C 92.91 162.52 92.20 170.19 91.13 177.98 C 90.12 184.81 90.54 192.00 90.48 199.00 C 90.43 204.81 91.28 210.54 93.20 216.03 C 95.15 221.48 96.91 227.16 100.32 231.85 C 105.01 238.43 109.59 244.91 115.47 250.53 C 120.10 254.94 124.22 260.04 129.53 263.33 C 133.12 265.74 137.30 267.62 140.54 270.46 C 141.61 271.36 141.79 273.08 142.24 274.34 C 137.03 272.52 131.61 271.43 126.41 269.56 C 111.95 264.88 98.69 256.79 87.76 246.24 C 73.21 232.23 63.16 213.98 58.58 194.33 C 53.81 174.58 53.82 153.62 58.80 133.91 C 64.14 111.88 76.22 92.14 92.25 76.25 C 108.51 60.18 129.24 47.40 151.54 41.91 Z" fill="#df2103" />
<path d="M 189.30 64.83 C 191.59 65.42 193.82 66.29 195.92 67.40 C 190.67 68.70 185.29 68.30 180.05 69.72 C 176.63 70.84 173.28 72.00 170.22 73.95 C 162.90 78.50 155.21 83.06 148.58 88.57 C 139.70 95.51 131.97 104.03 123.98 111.99 C 114.33 122.50 106.44 134.73 100.88 147.87 C 96.87 157.67 94.94 168.42 94.20 178.95 C 93.21 182.66 93.50 186.21 93.45 190.00 C 93.47 195.02 93.38 199.92 93.72 204.93 C 95.75 213.85 98.11 223.75 103.59 231.25 C 108.26 237.74 113.23 244.45 118.99 250.01 C 122.48 253.37 125.65 257.16 129.64 259.74 C 134.38 262.90 140.34 265.53 144.40 269.60 C 147.12 272.24 147.30 275.88 147.78 279.39 C 143.50 279.43 139.50 279.13 135.33 278.14 C 138.46 278.47 141.60 278.61 144.76 278.64 C 145.31 278.12 145.87 277.59 146.42 277.06 C 145.03 276.15 143.66 275.21 142.24 274.34 C 141.79 273.08 141.61 271.36 140.54 270.46 C 137.30 267.62 133.12 265.74 129.53 263.33 C 124.22 260.04 120.10 254.94 115.47 250.53 C 109.59 244.91 105.01 238.43 100.32 231.85 C 96.91 227.16 95.15 221.48 93.20 216.03 C 91.28 210.54 90.43 204.81 90.48 199.00 C 90.54 192.00 90.12 184.81 91.13 177.98 C 92.20 170.19 92.91 162.52 95.27 154.99 C 99.80 141.14 107.00 128.40 116.02 116.99 C 121.93 109.45 128.64 103.18 135.41 96.41 C 145.84 86.08 157.76 77.82 170.45 70.52 C 176.41 67.07 182.68 66.20 189.30 64.83 Z" fill="#f96119" />
<path d="M 164.90 86.84 C 164.67 89.10 163.22 89.61 161.20 89.75 C 161.77 87.94 162.91 86.80 164.90 86.84 Z" fill="#f96119" />
<path d="M 365.09 152.31 C 363.44 156.64 361.97 160.65 357.82 163.20 C 347.19 168.42 335.85 171.88 324.01 172.79 C 317.05 173.08 309.91 171.50 302.99 170.89 C 299.95 170.48 298.06 172.19 295.57 173.55 C 287.02 178.79 277.28 182.41 267.87 185.83 C 259.67 188.16 250.90 190.15 242.34 189.87 C 250.37 197.90 260.30 199.62 271.00 201.70 C 275.72 202.63 281.69 201.86 285.70 204.60 C 285.25 205.92 284.01 207.47 284.30 208.90 C 284.80 212.62 285.71 216.24 285.94 220.00 C 286.53 225.87 285.45 231.17 284.83 236.99 C 284.09 243.22 282.18 248.81 280.86 254.97 C 278.44 265.80 273.94 275.81 268.32 285.33 C 265.30 290.74 260.47 296.62 260.49 303.00 C 260.44 309.59 261.96 315.85 263.80 322.11 C 267.19 333.59 266.45 346.44 263.81 358.01 C 262.96 363.50 260.51 368.63 260.89 374.00 C 261.28 382.33 263.31 390.70 264.29 399.00 C 265.12 406.12 266.95 413.15 269.65 419.79 C 271.73 425.26 274.01 430.86 277.22 435.78 C 281.19 441.87 286.25 446.65 290.89 452.11 C 292.04 453.32 292.19 454.67 292.33 456.24 C 290.51 455.94 288.98 455.68 287.53 454.47 C 282.65 450.79 277.84 446.76 273.85 442.12 C 267.96 435.29 264.87 426.62 261.67 418.30 C 257.02 406.00 255.60 393.82 253.06 381.03 C 252.26 376.63 252.00 371.66 253.38 367.35 C 255.53 361.80 256.72 355.85 257.89 350.03 C 258.98 344.59 258.42 339.29 257.93 333.84 C 257.00 324.16 253.47 314.70 253.03 305.00 C 252.66 297.09 256.61 291.53 259.67 284.56 C 262.01 280.00 265.30 276.21 267.58 271.57 C 269.27 268.13 270.64 264.53 271.95 260.93 C 273.87 255.73 274.17 250.23 275.91 244.95 C 278.26 238.03 277.76 231.17 278.86 224.02 C 278.26 218.39 278.01 214.21 279.54 208.66 C 269.22 209.25 259.05 207.82 249.69 203.31 C 243.36 200.17 238.63 195.10 234.35 189.60 C 232.45 186.94 229.24 186.13 227.32 183.65 C 226.34 182.26 226.65 180.88 228.15 180.16 C 232.38 179.41 236.51 182.13 241.00 182.10 C 251.85 182.67 263.25 180.70 273.17 176.20 C 278.54 173.89 283.96 172.06 288.95 168.92 C 293.29 166.55 296.77 163.35 302.00 163.43 C 306.67 163.75 311.35 164.78 315.99 165.18 C 328.28 166.45 341.42 164.23 352.32 158.31 C 356.32 155.68 360.66 154.04 365.09 152.31 Z" fill="#000000" />
<path d="M 357.82 163.20 C 355.65 165.17 353.61 167.28 351.69 169.49 L 352.48 170.79 C 350.71 171.72 348.99 172.49 347.23 173.36 L 345.92 171.80 C 338.69 175.96 330.29 177.75 322.00 177.53 C 314.31 177.68 306.62 177.32 298.93 177.45 C 296.06 177.38 293.36 179.33 290.98 180.76 C 284.61 184.94 278.93 189.22 271.63 191.78 C 271.47 193.02 271.31 194.27 271.15 195.52 C 275.46 196.40 279.57 196.39 283.54 198.53 C 286.73 199.83 289.04 202.09 291.40 204.51 C 291.44 205.46 291.47 206.41 291.51 207.36 C 291.08 206.34 290.66 205.31 290.25 204.29 L 289.19 204.23 C 289.95 205.38 290.71 206.55 291.47 207.70 C 293.64 216.49 292.19 225.86 292.79 235.02 C 292.97 236.41 293.72 237.76 294.26 239.04 C 294.42 241.02 294.56 243.00 294.70 244.99 C 295.24 246.97 295.69 248.97 296.17 250.97 C 297.39 255.32 298.80 259.61 299.84 264.01 C 301.82 273.17 302.82 282.63 302.52 292.00 C 302.79 297.78 302.00 303.41 300.80 309.05 C 300.60 310.01 300.39 310.98 300.18 311.94 C 299.83 313.36 299.55 314.80 299.29 316.24 C 298.83 316.98 298.38 317.71 297.93 318.45 C 296.87 322.07 295.26 325.48 294.20 329.11 C 293.89 330.11 293.58 331.12 293.27 332.13 C 291.95 335.41 290.37 338.58 289.16 341.91 C 288.33 343.63 287.69 345.30 287.19 347.14 C 284.77 350.92 283.60 355.37 280.76 358.80 C 280.63 359.58 280.49 360.35 280.36 361.12 C 276.57 367.27 274.57 374.55 272.12 381.32 C 269.63 387.68 267.17 394.04 267.03 400.99 C 266.80 406.78 269.17 412.00 269.46 417.81 L 269.65 419.79 C 266.95 413.15 265.12 406.12 264.29 399.00 C 263.31 390.70 261.28 382.33 260.89 374.00 C 260.51 368.63 262.96 363.50 263.81 358.01 C 266.45 346.44 267.19 333.59 263.80 322.11 C 261.96 315.85 260.44 309.59 260.49 303.00 C 260.47 296.62 265.30 290.74 268.32 285.33 C 273.94 275.81 278.44 265.80 280.86 254.97 C 282.18 248.81 284.09 243.22 284.83 236.99 C 285.45 231.17 286.53 225.87 285.94 220.00 C 285.71 216.24 284.80 212.62 284.30 208.90 C 284.01 207.47 285.25 205.92 285.70 204.60 C 281.69 201.86 275.72 202.63 271.00 201.70 C 260.30 199.62 250.37 197.90 242.34 189.87 C 250.90 190.15 259.67 188.16 267.87 185.83 C 277.28 182.41 287.02 178.79 295.57 173.55 C 298.06 172.19 299.95 170.48 302.99 170.89 C 309.91 171.50 317.05 173.08 324.01 172.79 C 335.85 171.88 347.19 168.42 357.82 163.20 Z" fill="#f96119" />
<path d="M 364.10 162.32 C 366.05 165.05 366.37 167.73 366.06 171.01 C 365.07 178.88 361.78 185.36 358.31 192.32 C 352.82 203.17 349.19 214.92 347.71 226.99 C 345.85 238.78 347.47 250.72 350.88 262.07 C 353.34 270.59 357.67 278.30 360.17 286.82 C 362.33 294.26 365.13 302.27 365.96 309.98 C 366.36 317.27 364.46 324.77 362.77 331.82 C 359.86 342.60 352.10 349.14 343.47 355.47 C 341.53 356.71 339.65 358.78 337.15 357.84 C 336.14 356.43 336.68 354.92 337.76 353.77 C 343.08 347.65 349.55 341.58 353.49 334.47 C 356.26 328.80 357.46 322.23 358.30 316.01 C 359.45 307.63 355.92 299.23 353.70 291.24 C 351.26 282.48 346.81 274.59 344.08 265.94 C 340.52 254.63 338.95 242.82 340.09 230.99 C 341.77 217.06 345.55 203.49 351.98 190.99 C 355.17 184.79 358.42 178.85 360.09 172.01 C 360.89 168.50 362.02 165.29 364.10 162.32 Z" fill="#000000" />
<path d="M 356.27 169.51 C 354.57 172.91 353.25 176.77 350.11 179.13 C 342.66 184.95 334.03 188.72 326.59 194.64 C 317.01 201.85 310.30 211.46 305.11 222.16 C 306.95 221.36 308.96 220.13 310.99 220.02 C 313.21 220.20 314.54 221.74 314.41 223.97 C 314.06 229.63 315.01 235.21 314.59 240.85 C 313.60 240.80 312.61 240.69 311.63 240.54 C 309.25 236.53 308.35 232.12 307.99 227.52 C 304.82 230.95 302.71 235.22 299.61 238.65 C 296.50 240.35 295.36 238.28 293.57 236.16 C 295.60 229.95 296.90 223.63 299.69 217.66 C 305.14 206.22 313.39 196.14 323.53 188.54 C 331.05 182.79 339.41 178.69 347.23 173.36 C 348.99 172.49 350.71 171.72 352.48 170.79 C 353.75 170.38 355.01 169.95 356.27 169.51 Z" fill="#000000" />
<path d="M 313.13 243.88 C 316.08 245.82 319.39 247.75 320.88 251.11 C 325.34 260.95 326.87 271.28 327.23 281.99 C 327.70 296.24 327.28 309.88 322.26 323.38 C 319.53 330.91 315.42 337.34 311.07 344.05 C 307.13 349.27 302.73 354.48 298.31 359.31 C 293.51 363.96 289.17 368.94 285.65 374.63 C 282.57 379.29 281.46 384.19 279.33 389.35 C 276.85 395.45 274.63 401.35 274.12 407.99 C 273.93 411.02 274.31 414.06 274.12 417.08 C 273.44 418.43 272.10 418.48 270.83 419.00 L 269.46 417.81 C 269.17 412.00 266.80 406.78 267.03 400.99 C 267.17 394.04 269.63 387.68 272.12 381.32 C 277.18 370.81 283.55 361.11 292.63 353.64 C 298.52 347.40 305.42 340.99 309.22 333.25 C 312.90 326.32 316.51 318.76 318.09 311.04 C 319.71 304.40 318.97 296.84 319.00 290.00 C 318.58 278.31 316.98 266.73 313.55 255.53 C 312.18 251.63 312.68 247.88 313.13 243.88 Z" fill="#000000" />
<path d="M 406.02 263.86 C 411.54 263.94 416.15 267.71 418.76 272.36 C 423.01 280.01 423.58 289.45 422.90 297.99 C 421.65 312.45 416.29 326.94 410.04 339.95 C 409.25 341.85 407.92 342.55 406.15 343.36 C 406.00 341.36 405.83 339.47 406.51 337.55 C 410.01 326.47 413.31 315.68 414.22 304.00 C 415.08 295.94 414.86 287.31 412.47 279.52 C 411.27 276.13 409.12 271.74 405.03 271.46 C 401.63 271.57 399.16 273.65 396.53 275.54 C 390.66 280.07 384.49 284.66 377.75 287.82 C 374.44 289.54 370.10 289.31 366.41 289.90 C 368.06 288.39 369.62 286.79 371.21 285.22 C 373.87 282.60 377.43 280.69 380.50 278.50 C 385.44 275.15 389.91 271.19 394.80 267.78 C 398.22 265.44 401.75 263.64 406.02 263.86 Z" fill="#000000" />
<path d="M 193.89 268.12 C 198.01 269.42 202.09 270.25 206.08 271.93 C 217.53 276.58 229.64 279.48 242.00 280.09 C 246.64 280.29 251.65 279.68 256.21 280.52 L 258.10 281.78 L 255.29 283.28 C 248.68 287.43 241.43 286.83 233.99 286.11 C 223.91 285.35 214.03 283.00 204.60 279.40 C 198.98 277.18 192.92 275.98 187.01 274.78 C 181.03 273.56 175.16 275.82 170.47 279.47 C 164.94 283.86 159.52 288.54 154.81 293.81 C 148.19 301.48 143.59 310.19 139.33 319.32 C 137.41 324.31 136.00 329.63 135.76 334.99 C 135.19 342.10 137.55 348.84 137.25 356.00 C 137.58 364.70 136.51 373.33 137.04 382.01 C 137.15 385.56 136.89 389.00 136.70 392.53 C 142.53 386.10 149.35 380.04 157.22 376.26 C 163.69 372.94 169.68 368.83 175.61 364.63 C 179.56 360.17 181.88 353.93 183.27 348.21 C 185.27 339.39 185.80 330.01 188.42 321.34 C 191.32 311.92 195.12 303.09 201.52 295.49 C 203.83 292.77 206.83 291.55 209.93 289.95 C 206.95 299.30 200.91 306.91 198.33 316.45 C 195.74 324.46 194.25 332.69 193.08 341.01 C 191.47 351.21 188.88 360.97 181.77 368.79 C 173.98 377.92 160.90 382.04 151.37 389.32 C 146.20 393.51 141.82 400.20 141.85 407.03 C 140.87 413.34 141.64 420.01 143.99 425.94 C 146.78 431.58 150.11 437.04 154.18 441.86 C 155.30 443.37 156.50 444.42 155.35 446.38 C 153.06 447.54 152.12 445.74 150.62 444.39 C 145.95 439.22 142.27 433.09 139.08 426.92 C 134.28 417.34 133.07 407.72 130.46 397.48 C 129.40 393.33 129.52 389.22 129.42 384.99 C 128.32 374.41 129.26 363.70 128.76 353.03 C 128.54 348.95 127.50 345.03 127.14 340.98 C 126.46 329.41 129.68 317.55 135.67 307.67 C 138.20 302.40 141.59 297.73 144.79 292.87 C 150.72 284.45 159.10 277.37 167.40 271.35 C 175.26 265.92 184.92 265.47 193.89 268.12 Z" fill="#000000" />
<path d="M 187.01 274.78 C 192.92 275.98 198.98 277.18 204.60 279.40 C 214.03 283.00 223.91 285.35 233.99 286.11 C 241.43 286.83 248.68 287.43 255.29 283.28 C 256.76 283.66 258.22 284.11 259.67 284.56 C 256.61 291.53 252.66 297.09 253.03 305.00 C 253.47 314.70 257.00 324.16 257.93 333.84 C 254.02 331.20 250.21 328.48 246.75 325.25 C 244.44 323.08 242.01 321.15 239.24 319.61 C 236.01 319.12 233.26 317.57 230.02 317.50 C 226.28 317.40 222.75 316.29 219.00 316.41 C 212.11 316.46 205.22 316.42 198.33 316.45 C 200.91 306.91 206.95 299.30 209.93 289.95 C 206.83 291.55 203.83 292.77 201.52 295.49 C 195.12 303.09 191.32 311.92 188.42 321.34 C 187.22 321.39 186.02 321.44 184.82 321.49 C 181.00 325.94 176.59 329.45 173.18 334.26 C 167.38 342.33 164.22 352.31 161.74 361.84 C 160.70 364.51 159.87 367.16 159.19 369.95 C 157.95 371.94 157.48 373.95 157.22 376.26 C 149.35 380.04 142.53 386.10 136.70 392.53 C 136.89 389.00 137.15 385.56 137.04 382.01 C 136.51 373.33 137.58 364.70 137.25 356.00 C 137.55 348.84 135.19 342.10 135.76 334.99 C 136.00 329.63 137.41 324.31 139.33 319.32 C 143.59 310.19 148.19 301.48 154.81 293.81 C 159.52 288.54 164.94 283.86 170.47 279.47 C 175.16 275.82 181.03 273.56 187.01 274.78 Z" fill="#f96119" />
<path d="M 188.01 278.69 C 193.07 278.44 198.16 281.70 203.25 282.29 C 207.76 282.76 212.02 283.59 216.15 285.56 C 207.54 287.79 199.23 287.95 190.90 291.77 C 179.93 296.89 169.30 304.28 161.96 314.02 C 155.68 321.64 151.66 330.50 148.57 339.81 C 146.73 346.57 146.58 353.72 146.18 360.29 C 145.78 366.55 143.52 371.96 144.40 378.30 C 143.24 379.10 142.07 379.90 140.90 380.70 C 139.86 372.77 141.37 365.04 139.94 357.21 C 139.14 353.64 140.91 350.44 140.15 346.89 C 138.52 339.47 140.30 331.53 142.38 324.35 C 145.07 317.44 147.71 310.12 151.67 303.83 C 155.30 297.95 160.64 293.20 165.89 288.77 C 172.10 283.42 179.97 280.03 188.01 278.69 Z" fill="#df2103" />
<path d="M 405.95 281.74 C 408.09 282.82 407.20 285.13 407.08 287.04 C 406.01 292.84 402.60 298.38 398.79 302.81 C 393.70 308.66 387.76 313.93 381.31 318.26 C 378.32 320.31 374.63 320.65 371.14 321.18 C 373.45 318.50 375.45 315.44 378.03 313.06 C 387.16 304.74 396.29 295.19 402.33 284.35 C 403.27 282.88 403.93 281.61 405.95 281.74 Z" fill="#000000" />
<path d="M 188.42 321.34 C 185.80 330.01 185.27 339.39 183.27 348.21 C 181.88 353.93 179.56 360.17 175.61 364.63 C 169.68 368.83 163.69 372.94 157.22 376.26 C 157.48 373.95 157.95 371.94 159.19 369.95 C 159.87 367.16 160.70 364.51 161.74 361.84 C 164.22 352.31 167.38 342.33 173.18 334.26 C 176.59 329.45 181.00 325.94 184.82 321.49 C 186.02 321.44 187.22 321.39 188.42 321.34 Z" fill="#ffffff" />
<path d="M 197.23 333.23 C 198.14 333.86 199.05 334.48 199.97 335.09 C 206.41 338.57 210.89 343.99 216.88 348.15 C 226.04 355.00 236.52 358.85 247.51 361.61 C 249.28 362.12 252.71 363.27 250.41 365.49 C 245.32 366.74 239.08 365.05 234.01 363.96 C 221.95 360.42 210.79 352.87 201.86 344.12 C 198.73 341.05 198.37 337.25 197.23 333.23 Z" fill="#000000" />
<path d="M 229.87 366.78 C 229.68 370.27 229.77 374.72 227.76 377.73 C 223.36 384.38 219.01 390.69 213.03 396.06 C 208.72 400.11 203.45 403.34 200.52 408.48 C 199.26 410.50 198.39 412.96 196.79 414.72 C 195.86 414.83 194.92 414.92 193.99 414.98 C 193.21 409.20 194.74 403.92 198.28 399.35 C 201.98 394.90 207.11 391.24 211.03 387.02 C 214.87 382.69 218.89 378.80 221.64 373.64 C 223.47 370.19 226.52 368.49 229.87 366.78 Z" fill="#000000" />
<path d="M 184.46 371.87 C 184.96 375.27 186.06 378.61 186.01 382.00 C 185.95 388.67 186.33 395.24 187.53 401.81 C 189.67 412.40 193.93 422.29 199.49 431.53 C 200.78 434.16 202.90 435.90 201.84 439.00 C 198.09 437.43 196.23 434.32 193.70 431.32 C 185.90 421.20 180.39 408.78 179.05 396.02 C 178.93 390.54 178.52 384.37 180.20 379.11 C 181.00 376.50 182.87 374.07 184.46 371.87 Z" fill="#000000" />
<path d="M 187.65 447.34 C 189.47 448.82 190.82 450.98 192.22 452.85 C 190.95 451.73 189.72 450.45 188.28 449.54 C 185.81 448.06 182.48 448.35 179.74 448.68 C 181.21 448.21 182.66 447.71 184.12 447.20 C 182.11 446.48 180.08 445.93 177.96 445.65 C 181.17 445.12 184.91 445.45 187.65 447.34 Z" fill="#000000" />
<path d="M 177.96 445.65 C 180.08 445.93 182.11 446.48 184.12 447.20 C 182.66 447.71 181.21 448.21 179.74 448.68 C 173.20 450.38 167.68 454.33 164.05 460.03 C 160.90 464.90 160.03 471.28 160.28 476.97 C 165.55 477.12 170.76 476.66 176.00 476.31 C 178.25 476.11 180.26 476.78 182.37 477.41 C 181.41 478.64 180.65 479.69 179.00 479.97 C 173.16 481.27 167.07 481.63 161.14 482.30 C 162.76 490.77 165.09 498.14 165.05 506.60 C 174.02 505.25 182.97 503.86 192.00 502.99 C 194.06 502.78 196.21 502.63 198.21 502.09 C 199.44 499.25 199.19 495.65 198.24 492.75 C 196.69 486.98 193.93 481.85 191.84 476.28 C 191.08 475.83 190.32 475.38 189.57 474.93 C 191.81 475.10 193.82 474.88 195.79 476.16 C 199.64 478.16 201.12 482.40 202.93 486.06 C 206.10 481.02 209.46 476.50 215.17 474.19 C 221.45 471.27 231.01 473.90 233.81 480.54 C 229.16 480.91 225.93 477.24 221.01 478.13 C 213.76 479.14 208.92 486.12 206.49 492.48 C 205.19 495.45 206.18 498.21 206.53 501.28 C 212.61 501.01 218.62 500.08 224.71 499.94 C 223.18 496.45 222.77 494.13 224.60 490.60 C 228.01 484.77 234.60 480.67 241.18 479.45 C 244.05 478.89 247.17 479.45 248.72 482.17 C 249.50 484.79 248.22 486.70 246.25 488.27 C 241.64 491.72 235.87 493.11 230.17 492.31 C 229.76 492.94 229.88 493.75 230.55 494.75 C 230.02 495.11 229.48 495.48 228.91 495.85 C 236.49 500.49 245.44 497.49 253.78 497.91 C 252.87 496.29 251.82 494.95 251.70 493.03 C 251.35 489.09 253.69 485.96 256.45 483.46 C 261.00 479.71 266.97 476.98 272.98 477.99 C 275.26 478.53 276.87 480.68 276.27 483.03 C 275.70 486.17 271.82 488.09 269.14 489.16 C 265.34 490.86 261.87 490.07 257.87 490.02 C 257.91 491.00 257.99 491.97 258.09 492.94 C 260.20 495.04 264.17 495.30 266.99 495.78 C 278.39 496.55 289.62 495.76 300.98 495.02 C 301.10 488.99 300.05 483.54 303.03 478.03 C 305.17 474.34 308.96 470.87 313.55 472.50 C 315.76 473.15 316.22 474.85 317.22 476.66 C 316.46 476.13 315.70 475.59 314.95 475.05 C 312.30 476.41 309.90 477.83 308.65 480.67 C 306.85 485.02 307.46 490.32 307.87 494.88 C 321.22 494.05 334.62 493.84 348.00 493.53 C 367.03 492.79 386.02 493.35 405.03 494.44 C 406.48 494.59 407.91 494.90 409.34 495.25 C 406.57 495.91 403.87 496.48 401.00 496.34 C 370.17 495.70 339.14 497.25 308.34 498.36 C 309.04 505.19 310.75 512.58 309.29 519.21 C 308.60 523.08 307.41 526.68 304.35 529.34 C 300.79 532.77 295.53 532.70 290.96 531.90 C 289.00 531.43 286.85 531.17 286.21 528.89 C 287.59 526.54 290.71 527.41 293.01 527.05 C 296.51 527.10 299.93 525.66 301.24 522.20 C 303.86 515.26 302.10 506.30 301.56 499.03 C 291.40 499.12 281.13 499.85 271.03 501.00 C 264.04 501.49 256.35 500.33 249.52 502.42 C 243.09 504.07 236.52 504.40 229.97 503.28 C 222.35 503.51 214.66 504.32 207.06 505.06 C 206.86 507.92 206.93 511.78 205.24 514.24 C 203.90 516.11 201.09 516.08 199.79 514.19 C 198.36 511.89 198.36 508.55 198.03 505.92 C 187.04 506.86 175.97 508.35 165.07 509.94 C 164.18 514.13 163.22 518.06 160.77 521.66 C 157.14 527.01 151.61 530.47 145.64 532.71 C 136.28 536.10 125.92 537.31 116.00 537.40 C 111.39 537.30 106.07 537.18 101.81 535.27 C 99.84 534.44 98.28 532.71 98.52 530.47 C 99.03 527.96 101.56 525.99 103.57 524.63 C 108.16 521.68 113.43 519.62 118.53 517.75 C 131.58 513.15 145.36 510.09 158.97 507.67 C 158.89 499.43 156.37 491.06 154.85 482.89 C 151.56 483.32 148.30 483.83 144.97 484.01 C 135.57 484.50 127.04 486.11 117.67 483.90 C 121.52 482.31 125.35 480.88 129.50 480.32 C 137.70 479.22 145.95 478.21 154.21 477.81 C 154.18 472.55 154.74 466.90 156.91 462.06 C 160.63 453.63 168.83 447.10 177.96 445.65 Z" fill="#000000" />
<path d="M 269.41 482.89 C 266.73 484.66 263.77 485.74 260.77 486.86 C 263.47 485.12 266.26 483.63 269.41 482.89 Z" fill="#ffffff" />
<path d="M 243.40 484.10 C 240.24 486.36 236.67 487.67 232.96 488.76 C 236.19 486.47 239.43 484.67 243.40 484.10 Z" fill="#ffffff" />
<path d="M 369.48 501.07 C 367.39 504.31 366.41 507.92 364.63 511.33 C 366.42 513.11 368.60 514.89 369.83 517.11 C 369.82 517.91 369.61 518.69 369.20 519.43 C 366.01 519.83 363.43 517.57 360.93 515.96 C 358.61 518.84 356.30 522.01 353.40 524.32 C 351.80 525.44 350.06 524.95 349.52 522.98 C 349.64 518.61 353.34 514.24 355.88 510.87 C 354.68 508.54 353.59 506.16 352.64 503.71 C 354.95 504.66 357.20 505.75 359.42 506.89 C 362.42 504.21 366.00 502.93 369.48 501.07 Z" fill="#000000" />
<path d="M 331.32 502.29 C 336.65 499.60 342.17 504.63 342.23 509.99 C 342.58 516.77 334.92 521.80 328.79 519.22 C 324.11 517.52 322.59 511.94 324.64 507.66 C 325.90 504.62 328.57 503.63 331.32 502.29 Z" fill="#000000" />
<path d="M 331.42 506.00 C 334.68 505.64 337.93 508.77 336.26 511.98 C 334.83 514.78 332.55 513.78 329.97 513.95 C 329.00 510.86 329.90 508.66 331.42 506.00 Z" fill="#ffffff" />
<path d="M 158.82 510.87 C 157.84 515.15 156.44 519.10 153.20 522.20 C 148.61 526.64 141.87 529.09 135.80 530.67 C 126.74 532.84 117.28 533.80 107.98 533.12 C 105.55 533.01 103.40 532.17 101.23 531.15 C 104.01 526.67 109.00 524.67 113.62 522.60 C 127.00 517.14 141.60 514.04 155.79 511.48 C 156.80 511.28 157.81 511.07 158.82 510.87 Z" fill="#ffffff" />
</svg>